<svg width="48" height="48" viewBox="0 0 48 48" fill="none" xmlns="http://www.w3.org/2000/svg">
<path d="M26.9209 0.0715241C35.8046 -0.106768 35.8046 -0.106768 39.3718 1.98077C39.5206 2.06702 39.5206 2.06702 39.6725 2.15502C43.354 4.33346 46.2078 7.80484 47.3606 12.0566C48.4617 16.3134 48.2029 20.7635 46.0968 24.6585C45.6748 25.3978 45.2554 26.1145 44.756 26.801C44.6516 26.9498 44.5473 27.0986 44.4398 27.2519C43.2828 28.8146 41.7436 30.2217 40.0448 31.1402C39.8782 31.1402 39.7117 31.1402 39.5401 31.1402C39.5401 31.2547 39.5401 31.3693 39.5401 31.4873C36.5572 32.9203 33.7988 33.3012 30.5397 33.2738C30.196 33.2729 29.8523 33.2721 29.5086 33.2716C28.6119 33.2696 27.7152 33.2645 26.8184 33.2587C25.9002 33.2534 24.982 33.251 24.0638 33.2484C22.268 33.2429 20.4722 33.234 18.6764 33.223C18.6244 33.3841 18.6244 33.3841 18.5715 33.5485C18.5261 33.6893 18.4806 33.8302 18.4338 33.9753C18.3888 34.1149 18.3438 34.2545 18.2974 34.3984C18.0726 35.0893 17.8275 35.7721 17.5827 36.4557C17.533 36.5958 17.4834 36.7358 17.4322 36.8801C16.5697 39.2946 15.4566 41.3496 13.797 43.2899C13.7061 43.4002 13.6152 43.5105 13.5216 43.6242C11.451 45.9645 8.01256 47.457 5.04767 47.9763C4.69519 47.992 4.3423 47.9989 3.9895 47.9993C3.78952 47.9995 3.58955 47.9998 3.38351 48C3.17617 47.9993 2.96882 47.9987 2.75518 47.998C2.54653 47.9986 2.33788 47.9993 2.12291 48C1.8236 47.9997 1.8236 47.9997 1.51824 47.9993C1.33592 47.9991 1.15359 47.9989 0.965744 47.9987C0.504767 47.9763 0.504767 47.9763 0 47.8027C0 46.0844 0 44.3661 0 42.5957C0.63853 42.61 1.27706 42.6243 1.93494 42.6391C5.02627 42.6599 7.70804 42.0526 10.0638 39.8294C10.7047 39.1138 11.1641 38.4122 11.5709 37.5303C11.6274 37.4107 11.684 37.2911 11.7422 37.1678C12.4403 35.6819 13.1085 34.1813 13.7759 32.6806C13.9092 32.3819 14.0425 32.0832 14.1758 31.7845C14.9689 30.0067 15.7586 28.2273 16.5346 26.4416C16.976 25.4308 16.976 25.4308 17.1621 25.2389C17.6626 25.2217 18.1594 25.2158 18.6601 25.217C18.8174 25.2167 18.9748 25.2164 19.1369 25.216C19.4802 25.2153 19.8234 25.215 20.1667 25.2149C20.8983 25.2143 21.6299 25.2106 22.3616 25.2071C23.7245 25.2005 25.0875 25.195 26.4505 25.1954C27.3976 25.1955 28.3447 25.1914 29.2919 25.1847C29.6517 25.1828 30.0115 25.1826 30.3713 25.1839C33.2932 25.1936 35.5801 24.8451 37.8135 22.7018C39.562 20.7536 40.1965 18.2755 40.1027 15.6743C39.9225 13.5685 38.9524 11.6837 37.4579 10.2469C35.8599 8.88535 34.2206 8.22265 32.1467 8.21227C30.4594 8.19271 30.4594 8.19271 29.9344 7.77767C29.7015 7.35548 29.5734 6.96091 29.4447 6.49354C29.3064 6.12034 29.1661 5.74792 29.0241 5.37619C28.9549 5.18378 28.8857 4.99136 28.8144 4.79311C28.5687 4.1455 28.2733 3.53823 27.9639 2.92116C27.5238 2.00559 27.1539 1.06509 26.9209 0.0715241Z" fill="#E37549"/>
<path d="M18.1716 1.46007C18.5748 1.83594 18.7913 2.17092 19.0024 2.68589C19.0594 2.82349 19.1164 2.96109 19.1752 3.10286C19.35 3.54434 19.5182 3.98805 19.6859 4.43242C19.8895 4.9692 20.1112 5.45849 20.401 5.95114C20.6954 6.49354 20.6954 6.49354 20.6954 7.18781C20.8065 7.18781 20.9175 7.18781 21.0319 7.18781C21.1451 7.49478 21.257 7.80223 21.3685 8.10989C21.4622 8.36663 21.4622 8.36663 21.5577 8.62856C21.705 9.09706 21.705 9.09706 21.705 9.61776C21.816 9.61776 21.9271 9.61776 22.0415 9.61776C22.3688 10.7606 22.0063 11.5067 21.5312 12.5552C21.3359 12.9875 21.1455 13.422 20.955 13.8566C20.6629 14.5229 20.369 15.1884 20.0737 15.8533C19.8473 16.3646 19.624 16.8766 19.4105 17.3937C18.9129 18.5982 18.3663 19.7808 17.8246 20.9648C17.7653 21.0943 17.706 21.2239 17.6449 21.3574C17.5293 21.6099 17.4134 21.8623 17.2973 22.1146C17.2434 22.2323 17.1894 22.35 17.1338 22.4713C17.0865 22.5742 17.0392 22.6771 16.9904 22.7831C16.8059 23.2004 16.6326 23.6223 16.4581 24.0442C16.2279 24.592 15.9839 25.1332 15.7404 25.6748C15.6256 25.9314 15.5108 26.1879 15.396 26.4444C15.21 26.8598 15.0239 27.2751 14.8377 27.6904C14.1168 29.3 13.4049 30.9125 12.7204 32.5389C12.661 32.6793 12.6017 32.8196 12.5405 32.9643C12.2573 33.6342 11.9762 34.3049 11.6989 34.9774C10.4647 37.9273 8.9402 39.8821 6.0572 41.2071C5.92251 41.2704 5.78782 41.3338 5.64905 41.399C4.69848 41.7397 3.73173 41.7516 2.73415 41.7495C2.51639 41.75 2.29863 41.7504 2.07428 41.7509C1.5143 41.7278 1.5143 41.7278 1.00953 41.5543C1.3809 40.3359 1.83959 39.183 2.34506 38.0178C2.42683 37.8278 2.5086 37.6379 2.59284 37.4421C2.76495 37.0425 2.93734 36.643 3.11002 36.2436C3.34878 35.6908 3.58626 35.1374 3.82321 34.5837C4.81873 32.2605 5.82805 29.9437 6.84121 27.6286C6.98315 27.3043 7.12498 26.9798 7.2667 26.6553C8.56342 23.6874 8.56342 23.6874 9.26157 22.2787C9.49345 21.7917 9.67539 21.2905 9.85346 20.7803C10.0731 20.1742 10.2862 19.599 10.6106 19.0447C10.9572 18.4334 11.1948 17.8221 11.4414 17.1632C11.5931 16.7762 11.7604 16.4103 11.9461 16.0398C12.1883 15.556 12.3952 15.0695 12.587 14.5624C12.9746 13.5527 13.3884 12.5557 13.8075 11.5595C13.8805 11.3842 13.9534 11.2089 14.0286 11.0283C14.0999 10.8589 14.1711 10.6894 14.2445 10.5148C14.3081 10.3631 14.3717 10.2114 14.4372 10.0552C14.6462 9.60033 14.8905 9.18034 15.143 8.74992C15.2625 8.43455 15.3747 8.11615 15.4795 7.7953C15.6446 7.29007 15.8061 6.85752 16.0743 6.40065C16.3233 5.96849 16.4431 5.60081 16.5627 5.11584C16.7688 4.3639 17.0679 3.84203 17.4986 3.19575C17.7435 2.62496 17.9609 2.04509 18.1716 1.46007Z" fill="#E88359"/>
<path d="M19.1811 0.245092C20.0855 0.236526 20.9899 0.230218 21.8943 0.226024C22.2021 0.224276 22.51 0.221905 22.8178 0.218905C23.2596 0.214705 23.7015 0.212727 24.1434 0.211192C24.3505 0.208505 24.3505 0.208505 24.5619 0.205763C24.8998 0.205694 25.2376 0.223831 25.5748 0.245092C26.0151 0.699285 26.1826 1.22353 26.4161 1.8072C26.8776 2.90241 27.3637 3.98575 27.8522 5.06838C28.0615 5.54166 28.2617 6.01787 28.4598 6.49617C28.7196 7.11933 28.9858 7.73955 29.2515 8.36007C29.314 8.50623 29.3765 8.65238 29.441 8.80297C29.6454 9.28072 29.85 9.75842 30.0546 10.2361C30.1247 10.3998 30.1948 10.5635 30.2671 10.7321C31.2986 13.1402 32.3351 15.546 33.3777 17.949C33.4369 18.0855 33.4961 18.222 33.5571 18.3626C33.6718 18.6269 33.7865 18.8911 33.9013 19.1554C34.0085 19.4023 34.1156 19.6494 34.2225 19.8966C34.4537 20.4302 34.6888 20.9606 34.9329 21.4882C35.0118 21.6591 35.0907 21.8301 35.172 22.0062C35.2747 22.223 35.2747 22.223 35.3794 22.4442C35.5019 22.8089 35.5019 22.8089 35.3337 23.3296C34.9787 23.5262 34.9787 23.5262 34.5344 23.6985C34.3171 23.785 34.3171 23.785 34.0954 23.8734C33.3886 24.1128 32.7348 24.2194 31.9916 24.2144C31.8424 24.2139 31.6933 24.2133 31.5397 24.2127C31.3862 24.2113 31.2328 24.2098 31.0747 24.2083C30.918 24.2075 30.7613 24.2067 30.5998 24.2059C30.2148 24.2039 29.8298 24.2011 29.4447 24.1975C29.388 24.0646 29.3312 23.9317 29.2727 23.7948C29.0582 23.2933 28.8434 22.7919 28.6283 22.2906C28.491 21.9704 28.3542 21.6499 28.2173 21.3295C27.7543 20.2513 27.275 19.1883 26.7569 18.1371C26.5454 17.6937 26.3761 17.2431 26.2163 16.7774C25.7611 15.5209 25.2186 14.3098 24.6756 13.0914C24.3124 12.2752 23.9558 11.4595 23.6294 10.6266C22.9197 8.8316 22.0856 7.08076 21.2317 5.3545C20.8981 4.67556 20.621 3.98316 20.3543 3.27372C20.1451 2.7302 19.9117 2.19972 19.6741 1.66889C19.4833 1.20247 19.3345 0.725815 19.1811 0.245092Z" fill="#E27B51"/>
<path d="M26.9209 0.0715241C35.8046 -0.106768 35.8046 -0.106768 39.3718 1.98077C39.471 2.03827 39.5703 2.09577 39.6725 2.15502C43.354 4.33346 46.2078 7.80484 47.3606 12.0566C48.4617 16.3134 48.2029 20.7635 46.0968 24.6585C45.6748 25.3978 45.2554 26.1145 44.756 26.801C44.6516 26.9498 44.5473 27.0986 44.4398 27.2519C43.2334 28.8814 41.6906 30.2769 39.8766 31.1402C39.9291 30.8039 39.9291 30.8039 40.0448 30.4459C40.2114 30.3886 40.378 30.3314 40.5496 30.2723C40.5496 30.1578 40.5496 30.0432 40.5496 29.9252C40.6741 29.7977 40.7986 29.6701 40.9268 29.5387C41.4075 29.0401 41.7324 28.5512 42.0849 27.9509C42.1964 27.7634 42.3079 27.5759 42.4227 27.3827C42.7419 26.7918 42.9928 26.2111 43.2417 25.586C43.3284 25.3891 43.4152 25.1922 43.5046 24.9894C45.0888 20.9393 44.3322 15.648 42.8736 11.6789C41.5668 8.60525 39.2879 6.47676 36.3432 5.12669C33.875 4.16355 31.5464 4.17254 28.9399 4.23715C28.8844 4.40899 28.8289 4.58082 28.7717 4.75786C27.2241 1.36276 27.2241 1.36276 26.9209 0.0715241Z" fill="#F29771"/>
<path d="M20.3589 6.66711C20.5255 6.75302 20.5255 6.75302 20.6954 6.84067C20.6954 6.95523 20.6954 7.06978 20.6954 7.18781C20.8065 7.18781 20.9175 7.18781 21.0319 7.18781C21.1451 7.49478 21.257 7.80223 21.3685 8.10989C21.4309 8.28105 21.4934 8.45221 21.5577 8.62856C21.705 9.09706 21.705 9.09706 21.705 9.61776C21.816 9.61776 21.9271 9.61776 22.0415 9.61776C22.3688 10.7606 22.0063 11.5067 21.5312 12.5552C21.3359 12.9875 21.1455 13.422 20.955 13.8566C20.6629 14.5229 20.369 15.1884 20.0737 15.8533C19.8473 16.3646 19.624 16.8766 19.4105 17.3937C18.9129 18.5982 18.3663 19.7808 17.8246 20.9648C17.7653 21.0943 17.706 21.2239 17.6449 21.3574C17.5293 21.6099 17.4134 21.8623 17.2973 22.1146C17.2434 22.2323 17.1894 22.35 17.1338 22.4713C17.0865 22.5742 17.0392 22.6771 16.9904 22.7831C16.8059 23.2004 16.6326 23.6223 16.4581 24.0442C16.2279 24.592 15.9839 25.1332 15.7404 25.6748C15.6256 25.9314 15.5108 26.1879 15.396 26.4444C15.21 26.8598 15.0239 27.2751 14.8377 27.6904C14.1168 29.3 13.4049 30.9125 12.7204 32.5389C12.661 32.6793 12.6017 32.8196 12.5405 32.9643C12.2573 33.6342 11.9762 34.3049 11.6989 34.9774C10.4647 37.9273 8.9402 39.8821 6.0572 41.2071C5.92251 41.2704 5.78782 41.3338 5.64905 41.399C4.69848 41.7397 3.73173 41.7516 2.73415 41.7495C2.51639 41.75 2.29863 41.7504 2.07428 41.7509C1.5143 41.7278 1.5143 41.7278 1.00953 41.5543C1.06506 41.3824 1.12058 41.2106 1.17779 41.0336C1.39989 41.0908 1.62198 41.1481 1.85081 41.2071C1.85081 41.0926 1.85081 40.978 1.85081 40.86C2.05556 40.7848 2.2603 40.7096 2.47125 40.6322C3.03634 40.4155 3.52457 40.1458 4.03813 39.8186C4.14918 39.8186 4.26023 39.8186 4.37464 39.8186C4.37464 39.704 4.37464 39.5895 4.37464 39.4714C4.48916 39.407 4.60368 39.3426 4.72167 39.2762C5.98704 38.443 6.65187 37.1702 7.25602 35.794C7.3331 35.6231 7.41018 35.4522 7.48959 35.2761C7.74412 34.7087 7.99468 34.1397 8.24452 33.5701C8.33453 33.3661 8.42454 33.1621 8.51728 32.9519C9.53852 30.6357 10.5436 28.3124 11.4894 25.9622C11.5454 25.8249 11.6013 25.6875 11.6589 25.546C11.7067 25.4272 11.7544 25.3083 11.8036 25.1859C11.9461 24.8917 11.9461 24.8917 12.2827 24.5446C12.407 24.2078 12.5308 23.8708 12.649 23.5317C12.8595 22.9604 13.1287 22.4256 13.4006 21.8835C14.1713 20.3191 14.8854 18.73 15.5952 17.1354C15.7276 16.8387 15.8601 16.5421 15.9926 16.2454C16.8924 14.2281 17.7799 12.2054 18.6515 10.1749C20.0046 7.03266 20.0046 7.03266 20.3589 6.66711Z" fill="#CC5F36"/>
<path d="M13.6287 33.223C15.2389 33.223 16.8491 33.223 18.5081 33.223C18.3909 33.9486 18.2851 34.4895 18.0467 35.1587C17.9599 35.4039 17.9599 35.4039 17.8712 35.654C17.8107 35.8219 17.7502 35.9898 17.6879 36.1628C17.599 36.4137 17.599 36.4137 17.5084 36.6696C16.6197 39.1627 15.5127 41.2841 13.797 43.2899C13.6606 43.4554 13.6606 43.4554 13.5216 43.6242C11.451 45.9645 8.01256 47.457 5.04767 47.9763C4.69519 47.992 4.3423 47.9989 3.9895 47.9993C3.78952 47.9995 3.58955 47.9998 3.38351 48C3.17617 47.9993 2.96882 47.9987 2.75518 47.998C2.54653 47.9986 2.33788 47.9993 2.12291 48C1.92337 47.9998 1.72383 47.9995 1.51824 47.9993C1.33592 47.9991 1.15359 47.9989 0.965744 47.9987C0.504767 47.9763 0.504767 47.9763 0 47.8027C0 46.0844 0 44.3661 0 42.5957C0.63853 42.61 1.27706 42.6243 1.93494 42.6391C5.02627 42.6599 7.70804 42.0526 10.0638 39.8294C11.0063 38.798 11.557 37.6568 12.1166 36.3734C12.4074 35.7196 12.7255 35.0799 13.0398 34.438C13.2341 34.037 13.4285 33.6361 13.6287 33.223Z" fill="#BA4E27"/>
<path d="M29.9495 34.2644C31.8373 34.2644 33.7251 34.2644 35.6702 34.2644C35.8714 34.7763 36.0727 35.2882 36.2801 35.8157C36.9882 37.5673 36.9882 37.5673 38.0258 39.1243C38.1424 39.2677 38.2591 39.4111 38.3794 39.5589C39.9889 41.3735 42.1094 42.4023 44.498 42.5127C44.6629 42.5186 44.8279 42.5245 44.9978 42.5306C45.7943 42.5628 45.7943 42.5628 46.6068 42.5957C46.6068 44.314 46.6068 46.0323 46.6068 47.8027C41.9437 47.9029 38.1146 46.983 34.6229 43.6171C32.2477 41.2262 30.8157 38.0586 29.9495 34.7851C29.9495 34.6133 29.9495 34.4414 29.9495 34.2644Z" fill="#BA4D26"/>
<path d="M39.4454 6.81898C41.7961 8.91489 43.4908 11.604 43.9147 14.8248C43.9253 15.1356 43.9293 15.4468 43.9252 15.7577C43.9237 15.9094 43.9222 16.0611 43.9206 16.2174C43.9187 16.3306 43.9167 16.4438 43.9147 16.5605C43.5322 16.0524 43.2062 15.5272 42.8841 14.9767C41.5161 12.7657 39.7357 11.1031 37.3639 10.1208C36.577 9.76792 35.877 9.23928 35.1654 8.74992C34.1638 8.34171 33.2113 8.21442 32.1444 8.21095C30.4556 8.19672 30.4556 8.19672 29.9225 7.75326C29.6936 7.33588 29.5643 6.95639 29.4447 6.49354C29.3931 6.35281 29.3415 6.21207 29.2883 6.06708C29.0493 5.40929 28.9399 4.95061 28.9399 4.23715C32.7176 3.58767 36.385 4.41224 39.4454 6.81898Z" fill="#D46237"/>
<path d="M38.867 26.4538C39.0336 26.5398 39.0336 26.5398 39.2035 26.6274C36.5319 28.6076 33.9325 29.135 30.7031 29.1233C30.2162 29.1217 29.7293 29.1236 29.2423 29.1262C27.8595 29.1331 26.4766 29.1334 25.0937 29.133C24.2435 29.133 23.3934 29.1363 22.5432 29.1416C22.0664 29.1434 21.5898 29.1414 21.1131 29.1392C19.372 29.1427 17.8894 29.2249 16.378 30.2198C16.2481 30.2944 16.1182 30.369 15.9843 30.4459C15.8732 30.3886 15.7622 30.3314 15.6478 30.2723C16.3221 29.1618 17.6592 28.7624 18.8416 28.448C22.227 27.7197 25.7889 27.9391 29.2277 27.9402C30.1224 27.9405 31.017 27.938 31.9117 27.9318C32.3244 27.9299 32.7371 27.932 33.1499 27.9342C35.0161 27.9297 36.6268 27.6398 38.3097 26.7467C38.4936 26.6501 38.6775 26.5534 38.867 26.4538Z" fill="#C4552B"/>
<path d="M15.6478 29.2309C15.9843 29.5781 15.9843 29.5781 15.9948 30.0662C15.747 30.8331 15.294 31.0881 14.6382 31.4873C14.7908 30.123 14.7908 30.123 15.143 29.5781C15.3096 29.4635 15.4761 29.349 15.6478 29.2309Z" fill="#CF6E47"/>
<path d="M38.867 26.4538C38.9781 26.5111 39.0891 26.5684 39.2035 26.6274C36.9982 28.1895 36.9982 28.1895 36.3432 28.1895C36.3432 28.075 36.3432 27.9604 36.3432 27.8424C36.2321 27.7851 36.1211 27.7278 36.0067 27.6688C36.1004 27.6393 36.1941 27.6098 36.2906 27.5793C36.9817 27.3529 37.6256 27.1075 38.2676 26.7576C38.4654 26.6574 38.6632 26.5571 38.867 26.4538Z" fill="#CB5A32"/>
<path d="M18.0033 29.0574C18.0589 29.1719 18.1144 29.2865 18.1716 29.4045C17.3414 29.7965 16.5221 30.1684 15.6478 30.4459C16.0002 29.5733 16.5218 29.3427 17.3205 28.9882C17.6668 28.8838 17.6668 28.8838 18.0033 29.0574Z" fill="#C75D33"/>
<path d="M12.4509 32.008C12.562 32.008 12.673 32.008 12.7874 32.008C12.7071 32.2612 12.6264 32.5143 12.5456 32.7674C12.5007 32.9083 12.4558 33.0493 12.4095 33.1945C12.2827 33.5701 12.2827 33.5701 12.1144 33.9173C12.0033 33.9173 11.8923 33.9173 11.7779 33.9173C11.8631 33.1613 12.0108 32.6255 12.4509 32.008Z" fill="#B8542F"/>
<path d="M40.7178 46.9349C40.9563 46.9596 41.1946 46.985 41.4329 47.0108C41.632 47.0319 41.632 47.0319 41.8352 47.0535C42.2025 47.1043 42.548 47.1814 42.9052 47.282C42.9052 47.3965 42.9052 47.5111 42.9052 47.6291C42.6351 47.614 42.3652 47.5952 42.0954 47.5749C41.87 47.5598 41.87 47.5598 41.64 47.5444C41.1711 47.4446 41.0137 47.3131 40.7178 46.9349Z" fill="#AA5130"/>
<path d="M19.8542 15.5191C20.0876 16.2415 19.8412 16.5609 19.5387 17.2263C19.3414 17.6178 19.1256 17.9628 18.8446 18.2962C18.9247 17.2499 19.3826 16.4274 19.8542 15.5191Z" fill="#D78363"/>
<path d="M18.0033 19.5111C18.1144 19.5111 18.2254 19.5111 18.3399 19.5111C18.2256 20.0519 18.0469 20.5267 17.8246 21.0299C17.7331 21.2379 17.7332 21.2379 17.6399 21.4502C17.5933 21.5549 17.5466 21.6596 17.4986 21.7675C17.2906 21.124 17.403 20.9561 17.6563 20.3464C17.7203 20.19 17.7843 20.0336 17.8502 19.8725C17.9007 19.7533 17.9513 19.634 18.0033 19.5111Z" fill="#D27E5C"/>
<path d="M17.4986 35.4794C17.6592 35.856 17.6911 36.0978 17.5656 36.4903C17.4382 36.793 17.3007 37.0912 17.1621 37.3886C17.0014 37.012 16.9696 36.7701 17.095 36.3777C17.2224 36.075 17.3599 35.7768 17.4986 35.4794Z" fill="#A94827"/>
<path d="M15.143 30.9666C15.254 31.0239 15.3651 31.0812 15.4795 31.1402C15.3442 31.2476 15.2088 31.355 15.0694 31.4656C14.6317 31.7896 14.6317 31.7896 14.47 32.1816C14.3589 32.1816 14.2479 32.1816 14.1335 32.1816C14.2445 31.8379 14.3556 31.4943 14.47 31.1402C14.6365 31.1402 14.8031 31.1402 14.9747 31.1402C15.0303 31.0829 15.0858 31.0256 15.143 30.9666Z" fill="#DE7D54"/>
<path d="M9.75882 38.2565C9.81435 38.4856 9.86987 38.7147 9.92708 38.9507C9.64946 39.1798 9.37183 39.409 9.0858 39.645C8.97475 39.5877 8.8637 39.5305 8.74929 39.4714C9.08243 39.0705 9.41558 38.6696 9.75882 38.2565Z" fill="#ECEAE5"/>
<path d="M1.17779 41.0336C1.56646 41.0336 1.95513 41.0336 2.35558 41.0336C2.30005 41.2054 2.24453 41.3772 2.18732 41.5543C1.79865 41.5543 1.40998 41.5543 1.00953 41.5543C1.06506 41.3824 1.12058 41.2106 1.17779 41.0336Z" fill="#B45732"/>
</svg>
