<svg width="48" height="48" viewBox="0 0 48 48" fill="none" xmlns="http://www.w3.org/2000/svg">
<path d="M26.9312 0.924804C33.9493 0.781936 33.9493 0.781937 36.4658 1.60863C36.6211 1.65799 36.7763 1.70735 36.9363 1.75821C37.3545 1.91163 37.7407 2.09037 38.1386 2.29245C38.3361 2.39117 38.5336 2.4899 38.7371 2.59162C39.9218 3.20153 40.9797 3.8585 41.9937 4.74325C42.3374 5.0538 42.3374 5.0538 42.8223 5.36964C42.8223 5.48247 42.8223 5.5953 42.8223 5.71155C42.9199 5.7532 43.0176 5.79485 43.1183 5.83776C44.9773 6.91251 46.4428 10.1824 47.0041 12.2078C47.1403 12.7178 47.246 13.2265 47.3387 13.7464C47.3697 13.9014 47.4008 14.0563 47.4328 14.2159C47.9106 16.8778 47.7735 19.5009 47.1714 22.1232C47.061 22.1232 46.9506 22.1232 46.8369 22.1232C46.8282 22.2189 46.8196 22.3145 46.8107 22.4131C46.4157 25.2663 44.0428 28.1378 41.9859 29.9872C41.7942 30.1275 41.5995 30.2639 41.4004 30.3932C40.9346 30.6395 40.9346 30.6395 40.815 31.1839C39.991 31.751 39.269 31.9873 38.3059 32.2096C37.6711 32.394 37.6711 32.394 37.3022 32.8934C35.1994 33.7031 33.0648 33.6676 30.8517 33.644C30.4955 33.6427 30.1393 33.6418 29.7831 33.6411C28.8547 33.6385 27.9264 33.6318 26.998 33.6242C26.047 33.6171 25.096 33.6141 24.145 33.6106C22.2858 33.6033 20.4266 33.5917 18.5675 33.5772C18.5463 33.7646 18.5251 33.9519 18.5032 34.1449C18.3851 34.8661 18.1324 35.2012 17.7311 35.7997C17.5196 36.3067 17.3505 36.8273 17.177 37.3489C15.7772 41.3427 13.448 44.488 9.73328 46.4523C9.58812 46.5296 9.58812 46.5296 9.44002 46.6086C7.19819 47.7194 5.13945 48.0627 2.67639 47.9909C2.4146 47.9866 2.15279 47.9827 1.89099 47.9792C1.26035 47.9707 0.630676 47.954 0 47.9375C0 46.245 0 44.5526 0 42.8088C2.1432 42.8409 2.1432 42.8409 2.80695 42.855C5.5292 42.8745 8.04193 41.9232 10.0084 39.9627C11.9887 37.7674 12.91 34.8057 13.8838 32.0386C13.9942 32.0386 14.1046 32.0386 14.2183 32.0386C14.2429 31.937 14.2675 31.8355 14.2928 31.7308C14.5654 30.7012 14.9588 29.8409 15.4755 28.9167C15.7796 28.3434 16.0107 27.7575 16.2328 27.1471C16.4263 26.654 16.6604 26.1873 16.8947 25.7133C17.0983 25.7138 17.302 25.7143 17.5118 25.7149C19.4409 25.719 21.3699 25.7167 23.299 25.7084C24.2906 25.7044 25.282 25.7025 26.2735 25.7057C27.2324 25.7087 28.1911 25.7058 29.1499 25.699C29.5137 25.6974 29.8775 25.6979 30.2413 25.7005C32.7448 25.717 35.316 25.5325 37.2166 23.6258C39.3805 21.0086 39.8755 18.8243 39.6441 15.456C39.5112 14.7602 39.2963 14.2004 38.975 13.5755C38.9079 13.4188 38.8408 13.2621 38.7717 13.1007C37.8962 11.21 36.4257 10.1786 34.5474 9.45119C33.9409 9.23693 33.4451 9.10432 32.8047 9.07656C32.6479 9.0694 32.491 9.06224 32.3294 9.05486C32.0844 9.04478 32.0844 9.04478 31.8344 9.03449C31.5865 9.02342 31.5865 9.02342 31.3336 9.01212C30.9256 8.99399 30.5175 8.97654 30.1094 8.9597C29.277 7.32412 28.5058 5.66276 27.7676 3.98063C27.6439 3.70414 27.6439 3.70414 27.5178 3.42206C27.4034 3.15842 27.4034 3.15842 27.2867 2.88945C27.2181 2.73318 27.1495 2.57691 27.0789 2.4159C26.9138 1.89581 26.9046 1.46817 26.9312 0.924804Z" fill="#DB6D41"/>
<path d="M18.0656 2.29245C18.2312 2.29245 18.3968 2.29245 18.5675 2.29245C18.6796 2.59849 18.791 2.90485 18.902 3.21133C18.9641 3.3819 19.0262 3.55247 19.0902 3.72821C19.2366 4.17296 19.2366 4.17296 19.2366 4.51487C19.347 4.51487 19.4574 4.51487 19.5711 4.51487C19.6833 4.82091 19.7947 5.12726 19.9057 5.43375C19.9678 5.60432 20.0299 5.77489 20.0938 5.95062C20.2402 6.39537 20.2402 6.39537 20.2402 6.73728C20.3506 6.73728 20.461 6.73728 20.5748 6.73728C21.0858 7.81248 21.4476 8.90214 21.7738 10.0495C21.8706 10.4812 21.8706 10.4812 22.0802 10.6693C22.0211 11.5762 21.9149 12.1297 21.4111 12.8917C21.2958 13.175 21.1848 13.4602 21.0766 13.7464C20.6575 14.8026 20.2317 15.8459 19.7214 16.8597C19.4804 17.3502 19.2776 17.8565 19.0693 18.3622C18.7072 19.2263 18.3186 20.0689 17.8984 20.9052C17.4928 21.7227 17.1687 22.5403 16.8875 23.4101C16.7122 23.8732 16.4806 24.2657 16.2256 24.6876C16.1022 24.9782 15.979 25.269 15.8604 25.5617C15.7153 25.9044 15.5549 26.2353 15.3893 26.5681C15.0836 27.1845 14.8153 27.8115 14.5529 28.4486C14.3316 28.9623 14.1074 29.4746 13.8838 29.9872C13.5796 30.6859 13.2757 31.3847 12.9731 32.0841C12.7461 32.6086 12.5184 33.1328 12.2903 33.6567C12.1959 33.8737 12.1019 34.0908 12.0081 34.308C10.5609 37.6593 9.09154 40.2685 5.59324 41.6762C4.27249 42.0998 2.49746 42.235 1.17092 41.7831C1.23593 40.8529 1.39962 40.1966 1.83348 39.3784C1.99178 39.0773 2.12647 38.7636 2.2582 38.4495C2.43474 38.0285 2.61603 37.6354 2.82275 37.2314C3.20625 36.461 3.49626 35.6592 3.78981 34.8494C4.35189 33.3782 5.02785 31.954 5.67687 30.5214C6.29838 29.1488 6.91777 27.7753 7.52735 26.3971C7.58415 26.2687 7.64096 26.1403 7.69948 26.0081C7.85232 25.661 8.0037 25.3133 8.15463 24.9654C8.2053 24.8506 8.25597 24.7357 8.30818 24.6175C8.56748 24.018 8.77225 23.457 8.86555 22.8071C8.97595 22.8071 9.08635 22.8071 9.20009 22.8071C9.26004 22.6034 9.31998 22.3998 9.38174 22.19C9.79738 20.9152 10.3963 19.7172 10.9624 18.5068C11.1097 18.191 11.2559 17.8746 11.4021 17.5582C11.4891 17.3719 11.5762 17.1857 11.6658 16.9938C11.8561 16.5313 11.9697 16.121 12.0438 15.627C12.1542 15.627 12.2646 15.627 12.3783 15.627C12.4887 15.1192 12.5991 14.6115 12.7129 14.0884C12.8233 14.0884 12.9337 14.0884 13.0474 14.0884C13.0612 13.9438 13.075 13.7992 13.0892 13.6503C13.2126 13.0723 13.4178 12.6763 13.7185 12.1758C13.9761 11.6929 14.0907 11.202 14.2183 10.6693C14.3287 10.6693 14.4391 10.6693 14.5529 10.6693C14.582 10.4861 14.582 10.4861 14.6117 10.2993C14.7259 9.78858 14.8986 9.3687 15.1174 8.89559C15.2293 8.64966 15.2293 8.64966 15.3435 8.39875C15.4138 8.24538 15.4841 8.092 15.5565 7.93397C15.8594 7.25945 16.116 6.62195 16.2256 5.88251C16.336 5.88251 16.4464 5.88251 16.5602 5.88251C16.5886 5.78929 16.6171 5.69607 16.6464 5.60003C17.0097 4.44463 17.4041 3.30662 18.0656 2.29245Z" fill="#E87C50"/>
<path d="M31.5417 4.82472C31.7485 4.82158 31.7485 4.82158 31.9596 4.81838C32.7546 4.81643 33.3743 4.89969 34.124 5.19868C34.4025 5.26762 34.6813 5.33529 34.9604 5.40169C37.7214 6.17787 40.0489 7.90241 41.6513 10.3273C41.7259 10.4314 41.8006 10.5354 41.8774 10.6425C43.5894 13.1757 44.0124 16.5815 43.6104 19.5766C43.1764 21.8696 41.9951 23.995 40.4804 25.7133C40.3899 25.8197 40.2993 25.9262 40.206 26.0358C39.481 26.8361 38.629 27.4022 37.7328 27.9871C37.2972 28.2599 37.2972 28.2599 36.9677 28.6195C34.9594 29.3868 33.0468 29.5951 30.9168 29.5754C30.4317 29.571 29.9469 29.572 29.4619 29.5741C28.4336 29.5776 27.4054 29.5743 26.3771 29.5705C25.1806 29.5668 23.9841 29.5661 22.7876 29.5706C22.3138 29.5711 21.8402 29.5675 21.3665 29.5637C19.3272 29.5603 17.3615 29.6709 15.7029 31.0343C15.5576 31.1511 15.4122 31.2679 15.2625 31.3882C15.0768 31.5409 15.0768 31.5409 14.8874 31.6967C14.639 31.866 14.639 31.866 14.3856 32.0386C14.5121 30.9784 14.9079 30.1061 15.3788 29.1645C15.7028 28.5136 15.9662 27.8469 16.2211 27.1651C16.4217 26.6677 16.6576 26.1934 16.8947 25.7133C17.0983 25.7138 17.302 25.7143 17.5118 25.7149C19.4409 25.719 21.3699 25.7167 23.299 25.7084C24.2906 25.7044 25.282 25.7025 26.2735 25.7057C27.2324 25.7087 28.1911 25.7058 29.1499 25.699C29.5137 25.6974 29.8775 25.6979 30.2413 25.7005C32.7448 25.717 35.316 25.5325 37.2166 23.6258C39.3805 21.0086 39.8755 18.8243 39.6441 15.456C39.5112 14.7602 39.2963 14.2004 38.975 13.5755C38.9079 13.4188 38.8408 13.2621 38.7717 13.1007C37.8445 11.0982 35.9468 9.74534 33.9352 8.99843C32.7025 8.66856 31.3765 8.67817 30.1094 8.61779C29.9693 8.25478 29.8301 7.89144 29.6912 7.52795C29.5748 7.2245 29.5748 7.2245 29.456 6.91491C29.273 6.39537 29.273 6.39537 29.273 6.05346C29.1626 6.05346 29.0522 6.05346 28.9385 6.05346C28.8557 5.54572 28.8557 5.54572 28.7712 5.02773C29.7001 4.86802 30.6005 4.82548 31.5417 4.82472Z" fill="#4E4E4D"/>
<path d="M19.0693 0.924806C21.1669 0.924806 23.2645 0.924806 25.4257 0.924806C26.0948 2.12149 26.0948 2.12149 26.0948 2.4634C26.2052 2.4634 26.3156 2.4634 26.4294 2.4634C26.7209 3.12551 27.0122 3.78774 27.3033 4.45009C27.4018 4.67422 27.5005 4.89832 27.5991 5.12239C28.1244 6.31509 28.6462 7.50931 29.1554 8.70927C29.2341 8.89418 29.3127 9.07908 29.3938 9.26959C29.6841 10.0093 29.9014 10.7647 30.1212 11.5287C30.4116 12.4779 30.8039 13.3484 31.3117 14.1952C31.648 14.8353 31.7252 15.2553 31.7822 15.9689C31.8926 15.9689 32.003 15.9689 32.1167 15.9689C32.1857 16.1346 32.2547 16.3003 32.3258 16.471C32.5295 16.958 32.7399 17.4414 32.9531 17.9242C33.1709 18.421 33.3687 18.9185 33.549 19.4307C33.7428 19.9735 33.9944 20.4335 34.2913 20.9265C34.4611 21.3243 34.6283 21.7233 34.7931 22.1232C34.8897 22.2995 34.9863 22.4758 35.0858 22.6575C35.3253 23.2204 35.2686 23.4255 35.1276 24.0037C34.9494 24.0563 34.9494 24.0563 34.7676 24.1099C34.6139 24.156 34.4601 24.202 34.3017 24.2495C34.1484 24.2951 33.9951 24.3407 33.8371 24.3877C33.4649 24.4807 33.4649 24.4808 33.2876 24.6876C32.9898 24.7025 32.6913 24.7059 32.3931 24.7043C32.2125 24.7037 32.0319 24.7032 31.8459 24.7026C31.6558 24.7012 31.4657 24.6997 31.2699 24.6982C31.0791 24.6975 30.8884 24.6967 30.6919 24.6959C30.219 24.6939 29.746 24.6911 29.273 24.6876C28.5374 23.4234 28.5374 23.4234 28.4053 22.775C28.3604 22.5599 28.3156 22.3448 28.2694 22.1232C28.2493 22.0005 28.2293 21.8777 28.2086 21.7513C28.1735 21.6484 28.1383 21.5454 28.1021 21.4394C27.9365 21.383 27.7709 21.3266 27.6003 21.2685C27.452 20.8618 27.452 20.8618 27.318 20.3175C26.9158 18.8859 26.2665 17.6261 25.593 16.3108C24.7185 14.5881 23.9262 12.8386 23.1675 11.0594C22.5203 9.54209 21.8589 8.03176 21.1916 6.52358C21.143 6.41364 21.0944 6.30371 21.0443 6.19043C20.9491 5.97488 20.8537 5.75936 20.7583 5.54387C20.6206 5.23267 20.4831 4.92135 20.3457 4.61002C20.1607 4.19778 19.9734 3.78859 19.78 3.38062C19.688 3.1846 19.596 2.98857 19.5012 2.78661C19.4181 2.61302 19.3351 2.43942 19.2495 2.26056C19.0693 1.77958 19.0693 1.77958 19.0693 0.924806Z" fill="#E87B50"/>
<path d="M26.9312 0.924804C33.9493 0.781936 33.9493 0.781937 36.4658 1.60863C36.6987 1.68267 36.6987 1.68267 36.9363 1.75821C37.3545 1.91163 37.7407 2.09037 38.1386 2.29245C38.3361 2.39117 38.5336 2.4899 38.7371 2.59162C39.9218 3.20153 40.9797 3.8585 41.9937 4.74325C42.3374 5.0538 42.3374 5.0538 42.8223 5.36964C42.8223 5.48247 42.8223 5.5953 42.8223 5.71155C42.9199 5.7532 43.0176 5.79485 43.1183 5.83776C44.9773 6.91251 46.4428 10.1824 47.0041 12.2078C47.1403 12.7178 47.246 13.2265 47.3387 13.7464C47.3853 13.9788 47.3853 13.9788 47.4328 14.2159C47.9106 16.8778 47.7735 19.5009 47.1714 22.1232C47.061 22.1232 46.9506 22.1232 46.8369 22.1232C46.8239 22.2667 46.8239 22.2667 46.8107 22.4131C46.4157 25.2663 44.0428 28.1378 41.9859 29.9872C41.7942 30.1275 41.5995 30.2639 41.4004 30.3932C40.9346 30.6395 40.9346 30.6395 40.815 31.1839C40.3347 31.5807 39.8606 31.8904 39.2363 31.8249C39.1069 31.7615 39.1069 31.7615 38.9749 31.6967C39.1498 31.6086 39.3247 31.5204 39.5049 31.4296C40.2081 31.0184 40.5921 30.4969 41.0345 29.8162C41.1421 29.6582 41.1421 29.6582 41.2518 29.497C41.5906 28.9936 41.9064 28.4931 42.1532 27.9357C42.2636 27.9357 42.374 27.9357 42.4877 27.9357C42.5067 27.8121 42.5257 27.6885 42.5452 27.5611C42.6597 27.0602 42.8335 26.6876 43.0732 26.2368C43.395 25.6027 43.6029 25.0676 43.6586 24.3457C43.769 24.3457 43.8794 24.3457 43.9932 24.3457C44.3374 21.5752 44.53 17.9568 43.6586 15.285C43.652 14.8862 43.6513 14.4872 43.6586 14.0883C43.493 14.0883 43.3274 14.0883 43.1568 14.0883C43.11 13.9374 43.0632 13.7864 43.015 13.6309C42.0631 10.7185 40.4867 8.61045 37.9713 6.90823C37.8164 6.80279 37.8164 6.80279 37.6583 6.69521C36.4255 5.91867 35.0217 5.51045 33.6052 5.26613C33.2876 5.19868 33.2876 5.19868 33.1203 5.02773C32.7981 5.01277 32.4752 5.00944 32.1526 5.01103C31.957 5.01158 31.7613 5.01213 31.5597 5.0127C31.2506 5.01485 31.2506 5.01485 30.9353 5.01704C30.7286 5.01781 30.522 5.01859 30.309 5.01938C29.7964 5.0214 29.2838 5.02422 28.7712 5.02773C28.8264 5.36622 28.8816 5.70471 28.9385 6.05346C29.0489 6.05346 29.1593 6.05346 29.273 6.05346C29.4131 6.41647 29.5523 6.77981 29.6912 7.1433C29.8077 7.44675 29.8077 7.44675 29.9264 7.75633C30.1094 8.27587 30.1094 8.27588 30.1094 8.61779C30.3643 8.60886 30.3643 8.60886 30.6243 8.59975C32.0588 8.5651 33.4343 8.5832 34.7931 9.13065C34.8483 9.24348 34.9035 9.35631 34.9604 9.47256C34.6861 9.39124 34.6861 9.39124 34.4063 9.30828C33.5362 9.08599 32.6753 9.05402 31.7822 9.0238C31.6206 9.01719 31.4591 9.01058 31.2927 9.00377C30.8983 8.98781 30.5039 8.97314 30.1094 8.9597C29.277 7.32412 28.5058 5.66276 27.7676 3.98063C27.6851 3.7963 27.6027 3.61197 27.5178 3.42206C27.4415 3.2463 27.3652 3.07054 27.2867 2.88945C27.2181 2.73318 27.1495 2.57691 27.0789 2.4159C26.9138 1.89581 26.9046 1.46817 26.9312 0.924804Z" fill="#EE8154"/>
<path d="M20.0729 7.07919C20.5748 7.25015 20.5748 7.25015 20.7407 7.5373C20.7895 7.66115 20.8382 7.785 20.8884 7.9126C21.0721 8.37205 21.2584 8.81806 21.4784 9.26087C21.985 10.2892 22.2167 10.9118 21.913 12.0369C21.6725 12.4963 21.6725 12.4963 21.4111 12.8917C21.2958 13.175 21.1848 13.4602 21.0766 13.7464C20.6575 14.8026 20.2317 15.8459 19.7214 16.8597C19.4804 17.3502 19.2776 17.8565 19.0693 18.3622C18.7072 19.2263 18.3186 20.0689 17.8984 20.9052C17.4928 21.7227 17.1687 22.5403 16.8875 23.4101C16.7122 23.8732 16.4806 24.2657 16.2256 24.6876C16.1022 24.9782 15.979 25.269 15.8604 25.5617C15.7153 25.9044 15.5549 26.2353 15.3893 26.5681C15.0836 27.1845 14.8153 27.8115 14.5529 28.4486C14.3316 28.9623 14.1074 29.4746 13.8838 29.9872C13.5796 30.6859 13.2757 31.3847 12.9731 32.0841C12.7461 32.6086 12.5184 33.1328 12.2903 33.6567C12.1959 33.8737 12.1019 34.0908 12.0081 34.308C10.5609 37.6593 9.09154 40.2685 5.59324 41.6762C4.72115 41.954 3.89657 42.0197 2.99004 42.0288C2.86507 42.0306 2.7401 42.0323 2.61134 42.0341C2.2569 42.0282 2.2569 42.0282 1.67275 41.954C1.56235 41.7848 1.45195 41.6155 1.3382 41.4412C1.71795 41.2735 2.09782 41.1062 2.47776 40.939C2.58525 40.8915 2.69274 40.844 2.80349 40.7951C3.25958 40.5946 3.7106 40.405 4.18187 40.2445C4.18187 40.1317 4.18187 40.0188 4.18187 39.9026C4.60005 39.6461 4.60005 39.6461 5.01824 39.3897C6.51548 37.9715 7.28075 36.2887 8.01742 34.3686C8.32716 33.5625 8.65663 32.7839 9.04459 32.0139C9.18799 31.7214 9.31512 31.4208 9.44056 31.1198C9.71107 30.4784 10.0121 29.8604 10.324 29.2393C10.5822 28.6985 10.8112 28.1481 11.0401 27.5938C11.5973 26.2549 12.1605 24.9188 12.7338 23.587C12.788 23.4597 12.8423 23.3324 12.8982 23.2012C13.1922 22.5216 13.5162 21.8866 13.8849 21.245C14.1415 20.7533 14.3271 20.2371 14.5238 19.718C14.9326 18.675 15.397 17.6553 15.8493 16.6313C15.951 16.4003 16.0527 16.1692 16.1544 15.9381C16.4008 15.3784 16.6477 14.8188 16.8947 14.2593C17.0051 14.2593 17.1155 14.2593 17.2293 14.2593C17.2396 14.0936 17.25 13.9279 17.2606 13.7571C17.3579 13.0427 17.6681 12.5214 18.0232 11.9073C18.2112 11.5638 18.3477 11.243 18.4734 10.8723C18.7439 10.0793 19.1246 9.34932 19.5038 8.60577C19.7381 8.10549 19.9124 7.60844 20.0729 7.07919Z" fill="#444240"/>
<path d="M13.5492 33.5773C15.1501 33.5773 16.7509 33.5773 18.4002 33.5773C18.0354 35.4413 18.0354 35.4413 17.5965 36.38C17.3941 36.8309 17.2169 37.2886 17.0425 37.7515C15.5984 41.5612 13.3155 44.5581 9.73328 46.4523C9.63651 46.5039 9.53973 46.5554 9.44002 46.6086C7.19819 47.7194 5.13945 48.0627 2.67639 47.9909C2.4146 47.9866 2.15279 47.9827 1.89099 47.9792C1.26035 47.9707 0.630676 47.954 0 47.9375C0 46.245 0 44.5526 0 42.8088C2.1432 42.8409 2.1432 42.8409 2.80695 42.855C5.5292 42.8745 8.04193 41.9232 10.0084 39.9627C11.5697 38.2319 12.3817 36.0841 13.2147 33.9192C13.3251 33.9192 13.4355 33.9192 13.5492 33.9192C13.5492 33.8063 13.5492 33.6935 13.5492 33.5773Z" fill="#454545"/>
<path d="M29.9421 34.603C31.7637 34.603 33.5854 34.603 35.4622 34.603C36.1313 36.1416 36.1313 36.1416 36.3025 36.5983C37.4366 39.3617 39.2873 41.0785 41.8892 42.318C43.3234 42.856 45.0033 42.7577 46.5023 42.8088C46.5023 44.5013 46.5023 46.1937 46.5023 47.9375C42.3079 48.0122 42.3079 48.0122 40.6477 47.4246C40.4883 47.379 40.329 47.3334 40.1648 47.2864C37.1453 46.3787 34.5201 44.2965 32.7858 41.6121C32.6664 41.3306 32.5525 41.0463 32.4512 40.7574C32.3408 40.7574 32.2304 40.7574 32.1167 40.7574C31.5495 39.5568 31.0238 38.3485 30.5589 37.1032C30.5164 36.9916 30.4739 36.8799 30.4301 36.7649C30.1568 36.0182 30.0559 35.4171 29.9421 34.603Z" fill="#494A4A"/>
<path d="M31.5417 4.82472C31.7485 4.82158 31.7485 4.82158 31.9596 4.81838C32.7546 4.81643 33.3743 4.89969 34.124 5.19868C34.4025 5.26762 34.6813 5.33529 34.9604 5.40169C37.7214 6.17787 40.0489 7.90241 41.6513 10.3273C41.7259 10.4314 41.8006 10.5354 41.8774 10.6425C43.1453 12.5186 43.7287 14.9102 43.6587 17.1655C43.3241 16.8236 43.3241 16.8236 43.0418 16.2146C42.1639 14.3838 40.5442 12.5479 38.8077 11.524C38.3898 11.3801 37.9701 11.2673 37.5433 11.1541C36.9799 10.9569 36.5893 10.6301 36.13 10.2512C34.2948 8.78751 32.3412 8.72414 30.1094 8.61779C29.9693 8.25478 29.8301 7.89144 29.6912 7.52795C29.5748 7.2245 29.5748 7.2245 29.456 6.91491C29.273 6.39537 29.273 6.39537 29.273 6.05346C29.1626 6.05346 29.0522 6.05346 28.9385 6.05346C28.8833 5.71497 28.8281 5.37648 28.7712 5.02773C29.7001 4.86802 30.6005 4.82548 31.5417 4.82472Z" fill="#3C3A38"/>
<path d="M26.396 28.4319C26.6592 28.4322 26.9224 28.4325 27.1855 28.4326C27.8705 28.4333 28.5555 28.4349 29.2405 28.4369C29.9425 28.4386 30.6446 28.4394 31.3466 28.4402C32.7185 28.4421 34.0903 28.445 35.4622 28.4486C34.8537 29.1222 34.5087 29.4356 33.6184 29.498C33.4981 29.4991 33.3778 29.5002 33.2539 29.5014C33.0456 29.5039 33.0456 29.5039 32.8332 29.5064C32.6823 29.5074 32.5314 29.5084 32.3759 29.5094C32.216 29.5111 32.056 29.5128 31.8911 29.5146C31.3626 29.5199 30.834 29.5242 30.3054 29.5284C29.9388 29.5319 29.5723 29.5355 29.2057 29.5392C28.241 29.5486 27.2763 29.5571 26.3116 29.5653C25.3272 29.5739 24.3428 29.5834 23.3583 29.5929C21.4268 29.6112 19.4953 29.6286 17.5638 29.6453C17.9657 29.209 18.1839 29.0601 18.77 28.9761C18.9095 28.9554 19.049 28.9347 19.1928 28.9134C19.4111 28.8843 19.4111 28.8843 19.6338 28.8546C19.7729 28.8339 19.912 28.8132 20.0553 28.7918C22.1664 28.4897 24.2681 28.4242 26.396 28.4319Z" fill="#423A35"/>
<path d="M19.0693 0.924806C21.1669 0.924806 23.2645 0.924806 25.4257 0.924806C26.0948 2.12149 26.0948 2.12149 26.0948 2.4634C26.2052 2.4634 26.3156 2.4634 26.4294 2.4634C26.7268 3.14127 27.0243 3.81915 27.3217 4.49704C27.4226 4.72699 27.5235 4.95693 27.6244 5.18687C27.6731 5.29798 27.7219 5.40909 27.7721 5.52357C27.8204 5.63359 27.8687 5.74362 27.9185 5.85699C28.0144 6.0757 28.1101 6.29451 28.2055 6.51342C28.4092 6.98033 28.6152 7.44546 28.8297 7.90734C28.9236 8.11125 28.9236 8.11125 29.0195 8.31928C29.0734 8.4329 29.1272 8.54651 29.1827 8.66357C29.273 8.9597 29.273 8.9597 29.1058 9.47256C28.6041 8.58367 28.1482 7.6923 27.7532 6.74863C27.6191 6.43873 27.4648 6.13813 27.3076 5.83977C27.0903 5.35127 27.0528 5.04416 27.0985 4.51486C26.9881 4.51486 26.8777 4.51486 26.7639 4.51486C26.2671 3.44297 25.7703 2.37109 25.2584 1.26672C23.3816 1.26672 21.5048 1.26672 19.5711 1.26672C19.6263 1.71804 19.6815 2.16936 19.7384 2.63436C19.8488 2.63436 19.9592 2.63436 20.0729 2.63436C21.0331 4.40777 21.0331 4.40777 20.9093 5.36964C21.0197 5.36964 21.1301 5.36964 21.2439 5.36964C21.3806 5.72189 21.5163 6.07457 21.6516 6.42742C21.7273 6.62378 21.803 6.82013 21.8809 7.02243C22.0486 7.50166 22.1672 7.94613 22.2475 8.44683C21.7665 7.85494 21.4635 7.19918 21.1537 6.50422C21.0991 6.38281 21.0445 6.26139 20.9883 6.1363C20.8734 5.88001 20.759 5.62352 20.645 5.36684C20.4712 4.97663 20.295 4.58765 20.1187 4.19866C20.007 3.94865 19.8955 3.69856 19.7841 3.4484C19.7317 3.33332 19.6792 3.21824 19.6252 3.09967C19.5766 2.98902 19.528 2.87837 19.4779 2.76437C19.4352 2.66887 19.3925 2.57337 19.3486 2.47497C19.1902 1.97512 19.142 1.44493 19.0693 0.924806Z" fill="#F3BA9C"/>
<path d="M18.0656 2.29245C18.2312 2.29245 18.3968 2.29245 18.5675 2.29245C18.6796 2.59849 18.791 2.90485 18.902 3.21133C18.9641 3.3819 19.0262 3.55247 19.0902 3.72821C19.2366 4.17296 19.2366 4.17296 19.2366 4.51487C19.347 4.51487 19.4574 4.51487 19.5711 4.51487C19.6833 4.82091 19.7947 5.12726 19.9057 5.43375C19.9678 5.60432 20.0299 5.77489 20.0938 5.95062C20.2402 6.39537 20.2402 6.39537 20.2402 6.73728C20.3506 6.73728 20.461 6.73728 20.5748 6.73728C20.6917 6.98205 20.8063 7.22804 20.9198 7.47453C21.0158 7.6798 21.0158 7.6798 21.1138 7.88923C21.2439 8.27588 21.2439 8.27588 21.0766 8.78875C20.8886 8.40445 20.7007 8.02009 20.5133 7.63547C20.3123 7.22606 20.1093 6.81807 19.9044 6.41073C19.3128 5.22845 18.7587 4.08752 18.4002 2.80532C18.2898 2.80532 18.1794 2.80532 18.0657 2.80532C18.0051 3.00828 17.9445 3.21124 17.882 3.42035C17.5014 4.58695 16.9866 5.69515 16.487 6.81208C15.8682 8.20007 15.256 9.58692 14.7202 11.0112C14.6098 11.0112 14.4994 11.0112 14.3856 11.0112C14.3684 11.1839 14.3511 11.3567 14.3333 11.5347C14.2121 12.2441 14.0138 12.7572 13.7165 13.4045C13.6061 13.4045 13.4957 13.4045 13.382 13.4045C13.2716 13.6302 13.1612 13.8559 13.0474 14.0884C13.1198 13.3298 13.3297 12.8231 13.7185 12.1758C13.9761 11.6929 14.0907 11.202 14.2183 10.6693C14.3287 10.6693 14.4391 10.6693 14.5529 10.6693C14.5723 10.5472 14.5917 10.4251 14.6117 10.2993C14.7259 9.78858 14.8986 9.3687 15.1174 8.89559C15.192 8.73164 15.2666 8.56768 15.3435 8.39875C15.4138 8.24538 15.4841 8.092 15.5565 7.93397C15.8594 7.25945 16.116 6.62195 16.2256 5.88251C16.336 5.88251 16.4464 5.88251 16.5602 5.88251C16.5886 5.78929 16.6171 5.69607 16.6464 5.60003C17.0097 4.44463 17.4041 3.30662 18.0656 2.29245Z" fill="#F1AF8F"/>
<path d="M30.1094 34.7739C31.7654 34.7739 33.4214 34.7739 35.1276 34.7739C34.5622 35.5444 34.5622 35.5444 33.8744 35.7923C33.6561 35.8711 33.6561 35.8711 33.4333 35.9516C33.2817 36.0037 33.1302 36.0558 32.974 36.1095C32.7485 36.1926 32.7485 36.1926 32.5186 36.2775C31.7399 36.5519 31.2591 36.7031 30.444 36.4835C30.4198 36.2966 30.3957 36.1097 30.3708 35.9172C30.2963 35.2985 30.2963 35.2985 30.1094 34.7739Z" fill="#272827"/>
<path d="M42.8223 5.36964C45.0599 6.55165 46.5899 10.0045 47.3452 12.3254C48.0489 14.8044 48.1843 17.3753 47.7569 19.9115C47.7329 20.0595 47.709 20.2075 47.6843 20.3599C47.6259 20.7199 47.5661 21.0797 47.506 21.4394C47.4507 21.4394 47.3955 21.4394 47.3387 21.4394C47.3508 21.331 47.3628 21.2226 47.3753 21.1109C47.6132 18.6653 47.6742 16.1593 47.1714 13.7464C47.135 13.5693 47.0985 13.3921 47.061 13.2095C46.8175 12.1272 46.4921 11.146 46.0005 10.1564C45.9263 10.005 45.8521 9.85359 45.7757 9.69761C45.2239 8.61614 44.5843 7.67645 43.8259 6.73728C43.6983 6.56803 43.5706 6.39879 43.4391 6.22441C43.1819 5.86715 43.1819 5.86715 42.8223 5.71155C42.8223 5.59872 42.8223 5.48589 42.8223 5.36964Z" fill="#F6D4BD"/>
<path d="M40.3132 3.14722C40.4788 3.40109 40.4788 3.40109 40.6477 3.66009C39.9799 3.40335 39.3647 3.08221 38.7345 2.7412C37.5749 2.1341 36.4006 1.73189 35.1277 1.43767C35.0072 1.40797 34.8868 1.37828 34.7628 1.34768C33.19 1.00238 31.5958 1.01817 29.9944 0.988912C29.6966 0.982371 29.3987 0.975694 29.1009 0.968878C28.3777 0.952621 27.6544 0.938201 26.9312 0.924804C26.876 1.15047 26.8208 1.37613 26.7639 1.60862C26.6698 1.2774 26.6698 1.2774 26.5967 0.924804C28.9258 -1.45554 38.0414 1.29707 40.3132 3.14722Z" fill="#F8D3BC"/>
<path d="M43.3241 14.0883C43.4345 14.0883 43.5449 14.0883 43.6586 14.0883C43.9501 15.3307 44.0496 16.5096 44.0454 17.7853C44.0481 17.9536 44.0508 18.122 44.0536 18.2954C44.0543 19.3423 43.9306 20.1527 43.4914 21.0975C43.4417 21.2096 43.392 21.3217 43.3409 21.4372C43.1841 21.783 43.0207 22.1244 42.8536 22.4651C42.7956 22.5839 42.7376 22.7027 42.6778 22.8251C42.2453 23.6914 41.7604 24.4513 41.1495 25.2004C41.1495 24.5165 41.4101 24.2309 41.7768 23.6618C42.3908 22.6792 42.8387 21.7097 43.1568 20.5846C43.217 20.3775 43.2771 20.1703 43.3391 19.9569C43.5406 19.1161 43.5343 18.294 43.5227 17.4327C43.5226 17.2805 43.5225 17.1283 43.5224 16.9715C43.5161 15.9987 43.4442 15.0534 43.3241 14.0883Z" fill="#A55637"/>
<path d="M18.0656 2.29245C18.2312 2.29245 18.3968 2.29245 18.5675 2.29245C18.6796 2.59849 18.791 2.90485 18.902 3.21133C18.9952 3.46719 18.9952 3.46719 19.0902 3.72821C19.2366 4.17296 19.2366 4.17296 19.2366 4.51487C19.347 4.51487 19.4574 4.51487 19.5711 4.51487C19.6833 4.82091 19.7947 5.12726 19.9057 5.43375C19.9988 5.6896 19.9988 5.6896 20.0938 5.95062C20.2402 6.39537 20.2402 6.39537 20.2402 6.73728C20.3506 6.73728 20.461 6.73728 20.5748 6.73728C20.6917 6.98205 20.8063 7.22804 20.9198 7.47453C21.0158 7.6798 21.0158 7.6798 21.1138 7.88923C21.2439 8.27588 21.2439 8.27588 21.0766 8.78875C20.8882 8.40374 20.7 8.01869 20.512 7.63346C20.3147 7.23114 20.1161 6.82969 19.9161 6.42876C19.241 5.06996 18.6126 3.71144 18.0656 2.29245Z" fill="#EABDA4"/>
<path d="M14.0511 29.4743C14.2516 30.0892 14.1785 30.1825 13.9171 30.7491C13.8502 30.8971 13.7832 31.0451 13.7142 31.1976C13.6425 31.3517 13.5708 31.5059 13.497 31.6647C13.0776 32.5795 12.6887 33.4718 12.3783 34.432C12.1627 34.8314 12.1627 34.8314 11.9392 35.1799C11.8646 35.2976 11.79 35.4153 11.7131 35.5365C11.6284 35.6668 11.6284 35.6668 11.5419 35.7997C11.3747 35.4577 11.3747 35.4577 11.4933 35.0905C11.5579 34.9407 11.6224 34.7908 11.689 34.6364C11.7599 34.4703 11.8309 34.3043 11.904 34.1332C11.9812 33.9568 12.0584 33.7804 12.1379 33.5986C12.253 33.3318 12.253 33.3318 12.3704 33.0597C12.8973 31.8466 13.4436 30.6478 14.0511 29.4743Z" fill="#C4B1A1"/>
<path d="M38.4731 26.91C38.6387 26.9664 38.8043 27.0228 38.975 27.0809C37.6021 28.1491 36.5457 28.9496 34.7931 29.1324C35.4066 28.38 35.9882 28.0948 36.8834 27.7621C37.2736 27.6053 37.6054 27.4237 37.9608 27.1985C38.2144 27.0557 38.2144 27.0557 38.4731 26.91Z" fill="#4A403A"/>
<path d="M15.0547 9.13066C15.2448 9.7135 15.1998 9.81506 14.9815 10.3594C14.9334 10.4817 14.8854 10.604 14.8358 10.73C14.7976 10.8228 14.7595 10.9156 14.7202 11.0112C14.6098 11.0112 14.4994 11.0112 14.3856 11.0112C14.3597 11.2703 14.3597 11.2703 14.3333 11.5347C14.2121 12.2441 14.0138 12.7572 13.7165 13.4045C13.6061 13.4045 13.4957 13.4045 13.382 13.4045C13.2716 13.6302 13.1612 13.8559 13.0474 14.0884C13.1198 13.3298 13.3297 12.8231 13.7185 12.1758C13.9761 11.6929 14.0907 11.202 14.2183 10.6693C14.3287 10.6693 14.4391 10.6693 14.5529 10.6693C14.5736 10.5423 14.5943 10.4154 14.6156 10.2846C14.7126 9.84843 14.8435 9.51928 15.0547 9.13066Z" fill="#F1B393"/>
<path d="M35.1276 1.26672C37.1284 1.27634 39.1643 2.12323 40.6477 3.48913C39.9692 3.48913 39.5061 3.1673 38.9227 2.84805C37.6879 2.19101 36.4858 1.76732 35.1277 1.43767C35.1277 1.38125 35.1276 1.32484 35.1276 1.26672Z" fill="#F4C8AF"/>
<path d="M19.0693 0.924806C21.1669 0.924806 23.2645 0.924806 25.4257 0.924806C25.5085 1.34792 25.5085 1.34792 25.593 1.77958C25.5077 1.6542 25.5077 1.6542 25.4206 1.52628C24.928 1.13817 24.4305 1.20328 23.8347 1.21663C23.6519 1.21772 23.6519 1.21772 23.4655 1.21883C23.0769 1.2217 22.6884 1.22814 22.2998 1.23466C22.0361 1.23723 21.7725 1.23957 21.5088 1.24167C20.8629 1.24733 20.217 1.25618 19.5711 1.26672C19.5159 1.49238 19.4607 1.71804 19.4038 1.95054C19.0693 1.43767 19.0693 1.43767 19.0693 0.924806Z" fill="#F0AC8D"/>
<path d="M46.8369 22.1232C47.1607 23.1138 46.7178 24.0728 46.2821 24.9701C46.0833 25.3364 45.8796 25.6978 45.6659 26.0552C45.5555 26.0552 45.4451 26.0552 45.3314 26.0552C45.2762 26.2809 45.221 26.5065 45.1641 26.739C45.0537 26.739 44.9433 26.739 44.8295 26.739C45.0668 26.0767 45.3755 25.5104 45.7391 24.912C46.2654 24.0077 46.6044 23.1458 46.8369 22.1232Z" fill="#F4C5AC"/>
<path d="M12.7129 14.0884C12.8233 14.0884 12.9337 14.0884 13.0474 14.0884C12.9589 15.0315 12.7186 15.7605 12.3156 16.6099C12.2647 16.7225 12.2138 16.8352 12.1614 16.9512C11.9057 17.5017 11.6727 17.9713 11.2074 18.3622C11.2397 18.265 11.2721 18.1679 11.3054 18.0677C11.5723 17.2589 11.8211 16.4496 12.0438 15.627C12.1542 15.627 12.2646 15.627 12.3783 15.627C12.4887 15.1192 12.5991 14.6115 12.7129 14.0884Z" fill="#EFAB89"/>
<path d="M29.9421 34.603C31.7637 34.603 33.5854 34.603 35.4622 34.603C35.4622 34.6594 35.4622 34.7158 35.4622 34.7739C33.6958 34.7739 31.9294 34.7739 30.1094 34.7739C30.2198 34.9432 30.3302 35.1124 30.4439 35.2868C30.4649 35.7462 30.4649 35.7462 30.4439 36.1416C29.9374 35.5592 29.9421 35.4547 29.9421 34.603Z" fill="#6C665E"/>
<path d="M17.062 22.6361C17.2223 23.0748 17.2435 23.2768 17.0947 23.7271C17.0238 23.8739 16.9528 24.0208 16.8797 24.172C16.8037 24.3318 16.7277 24.4916 16.6494 24.6562C16.5682 24.8217 16.487 24.9872 16.4034 25.1577C16.2826 25.4099 16.2826 25.4099 16.1593 25.6672C15.9601 26.0824 15.7592 26.4966 15.5565 26.91C15.4461 26.91 15.3357 26.91 15.222 26.91C15.6726 25.4132 16.3684 24.0277 17.062 22.6361Z" fill="#C0AA97"/>
<path d="M18.4002 29.6453C17.9361 29.8873 17.4671 30.1075 16.9888 30.3184C16.4288 30.5706 15.9046 30.844 15.3892 31.1839C15.4506 30.7312 15.5011 30.5462 15.8538 30.2523C16.0327 30.1475 16.0327 30.1475 16.2152 30.0406C16.334 29.9694 16.4528 29.8982 16.5752 29.8249C17.258 29.441 17.6241 29.5131 18.4002 29.6453Z" fill="#574B43"/>
<path d="M47.0041 11.8659C47.822 13.1197 47.7122 14.5165 47.6732 15.9689C47.618 15.9689 47.5628 15.9689 47.506 15.9689C47.4837 15.8124 47.4615 15.6559 47.4387 15.4947C47.4091 15.2915 47.3796 15.0884 47.3491 14.879C47.32 14.6767 47.2909 14.4744 47.2609 14.266C47.1991 13.7623 47.1991 13.7623 47.0041 13.4045C46.9925 13.1412 46.99 12.8774 46.9937 12.6139C46.9952 12.4741 46.9967 12.3344 46.9983 12.1905C47.0002 12.0834 47.0021 11.9763 47.0041 11.8659Z" fill="#F5C8AF"/>
<path d="M16.8947 14.2593C17.0934 14.5157 17.0934 14.5157 17.2293 14.9431C17.1347 15.4361 16.9973 15.8893 16.7274 16.3108C16.3733 16.437 16.3733 16.437 16.0583 16.4817C16.1344 16.2393 16.2112 15.9972 16.2883 15.7552C16.3524 15.5529 16.3524 15.5529 16.4177 15.3465C16.5521 14.966 16.7102 14.6167 16.8947 14.2593Z" fill="#655043"/>
<path d="M37.4695 11.0112C37.8563 11.0112 37.8563 11.0112 38.3058 11.1821C38.4794 11.5279 38.5884 11.867 38.6946 12.2399C38.7812 12.5848 38.7812 12.5848 39.1422 12.7207C39.1422 13.0028 39.1422 13.2849 39.1422 13.5755C38.6453 12.9801 38.3069 12.3958 37.9713 11.695C37.8098 11.4627 37.6446 11.2328 37.4695 11.0112Z" fill="#827E77"/>
<path d="M19.5711 16.9946C19.7808 17.4991 19.7401 17.674 19.5352 18.1939C19.3925 18.4676 19.3925 18.4676 19.247 18.7469C19.1524 18.9311 19.0577 19.1153 18.9602 19.3051C18.8858 19.4453 18.8114 19.5855 18.7348 19.7299C18.6322 19.4247 18.6322 19.4247 18.5675 19.046C18.724 18.7427 18.8821 18.4396 19.0595 18.1485C19.2775 17.7802 19.4274 17.3984 19.5711 16.9946Z" fill="#CCBAA8"/>
<path d="M21.0766 5.36964C21.8094 6.18992 22.078 7.37259 22.2475 8.44683C21.6033 7.68974 21.1148 6.70324 21.0348 5.70086C21.0486 5.59156 21.0624 5.48226 21.0766 5.36964Z" fill="#F1B291"/>
<path d="M37.1349 28.4486C36.3415 28.8292 35.6759 29.0403 34.7931 29.1324C35.2001 28.5951 35.5063 28.3985 36.1522 28.3097C36.8004 28.2776 36.8004 28.2776 37.1349 28.4486Z" fill="#674738"/>
<path d="M15.0547 9.13066C15.2448 9.7135 15.1998 9.81506 14.9815 10.3594C14.9334 10.4817 14.8854 10.604 14.8358 10.73C14.7976 10.8228 14.7595 10.9156 14.7202 11.0112C14.6098 11.0112 14.4994 11.0112 14.3856 11.0112C14.3304 11.1804 14.2752 11.3497 14.2183 11.524C14.1631 11.3548 14.1079 11.1855 14.0511 11.0112C14.1063 10.8983 14.1615 10.7855 14.2183 10.6693C14.3287 10.6693 14.4391 10.6693 14.5529 10.6693C14.5736 10.5423 14.5943 10.4154 14.6156 10.2846C14.7126 9.84843 14.8435 9.51928 15.0547 9.13066Z" fill="#F2BB9E"/>
<path d="M6.5237 37.6802C6.6341 37.6802 6.7445 37.6802 6.85825 37.6802C6.62395 38.5848 6.04615 39.0093 5.35278 39.5607C5.24238 39.5042 5.13199 39.4478 5.01824 39.3897C5.14244 39.2663 5.26663 39.1429 5.3946 39.0158C5.85672 38.5508 5.85672 38.5508 6.22052 38.0541C6.32057 37.9307 6.42062 37.8073 6.5237 37.6802Z" fill="#473122"/>
<path d="M12.211 33.7482C12.3214 33.8046 12.4318 33.861 12.5456 33.9192C12.2144 34.5397 11.8832 35.1603 11.5419 35.7997C11.4867 35.6868 11.4315 35.574 11.3747 35.4578C11.5413 35.0504 11.5413 35.0504 11.7824 34.5816C11.9011 34.3482 11.9011 34.3482 12.0222 34.1101C12.0845 33.9907 12.1468 33.8713 12.211 33.7482Z" fill="#CBBFB1"/>
<path d="M40.815 30.8419C40.815 30.9548 40.815 31.0676 40.815 31.1839C39.7361 31.8836 39.7361 31.8836 39.2703 31.8029C39.1728 31.7679 39.0754 31.7328 38.9749 31.6967C39.2184 31.5534 39.4625 31.4111 39.7068 31.2693C39.8426 31.19 39.9785 31.1107 40.1184 31.0289C40.4804 30.8419 40.4804 30.8419 40.815 30.8419Z" fill="#F0C1A8"/>
<path d="M17.062 22.6361C17.2098 23.0578 17.2512 23.2581 17.0992 23.6859C17.0352 23.8049 16.9712 23.9239 16.9052 24.0465C16.8416 24.1673 16.778 24.288 16.7124 24.4124C16.6622 24.5032 16.6119 24.594 16.5602 24.6876C16.4124 24.2659 16.3709 24.0655 16.5229 23.6378C16.587 23.5188 16.651 23.3998 16.717 23.2772C16.7806 23.1564 16.8442 23.0357 16.9097 22.9112C16.96 22.8204 17.0102 22.7297 17.062 22.6361Z" fill="#CFBCA8"/>
<path d="M9.53465 38.7059C9.58985 38.8751 9.64505 39.0444 9.70192 39.2188C9.31552 39.5573 8.92911 39.8958 8.531 40.2445C8.4206 40.1881 8.3102 40.1317 8.19645 40.0735C8.63805 39.6222 9.07966 39.1709 9.53465 38.7059Z" fill="#CCC9C3"/>
<path d="M13.8838 32.0386C14.0435 32.4096 14.0752 32.6478 13.9504 33.0343C13.8238 33.3325 13.6871 33.6262 13.5492 33.9192C13.3895 33.5482 13.3579 33.31 13.4826 32.9235C13.6092 32.6253 13.746 32.3316 13.8838 32.0386Z" fill="#D7AD91"/>
<path d="M15.222 31.1839C15.3324 31.2403 15.4428 31.2967 15.5565 31.3548C15.3692 31.5268 15.1808 31.6975 14.992 31.8677C14.8872 31.9629 14.7824 32.0581 14.6744 32.1562C14.3856 32.3806 14.3856 32.3806 14.0511 32.3806C14.1615 32.1549 14.2719 31.9292 14.3856 31.6967C14.496 31.6967 14.6064 31.6967 14.7202 31.6967C14.992 31.4474 14.992 31.4474 15.222 31.1839Z" fill="#B87556"/>
<path d="M17.7311 20.9266C17.8461 21.2044 17.8461 21.2044 17.8984 21.6104C17.6579 22.166 17.6579 22.166 17.3965 22.6361C17.2815 22.3583 17.2815 22.3583 17.2293 21.9523C17.4697 21.3967 17.4697 21.3967 17.7311 20.9266Z" fill="#B0A496"/>
<path d="M15.8911 16.4817C16.0015 16.651 16.1119 16.8202 16.2256 16.9946C16.1704 17.1638 16.1152 17.3331 16.0583 17.5075C15.9479 17.5075 15.8375 17.5075 15.7238 17.5075C15.7238 17.6767 15.7238 17.8459 15.7238 18.0203C15.6134 18.0203 15.503 18.0203 15.3892 18.0203C15.5548 17.5126 15.7205 17.0049 15.8911 16.4817Z" fill="#6E5446"/>
<path d="M17.8461 29.5277C18.029 29.5665 18.2118 29.6053 18.4002 29.6453C17.8311 30.0032 17.3877 30.0179 16.7275 29.9872C17.0799 29.4574 17.1992 29.4717 17.8461 29.5277Z" fill="#51433A"/>
</svg>
